<svg xmlns="http://www.w3.org/2000/svg" id="Layer_2" data-name="Layer 2" viewBox="0 0 400.14 273.65"><defs><style>      .cls-1 {        fill: #2d2c2b;      }    </style></defs><g id="Logomarke_2" data-name="Logomarke 2"><path class="cls-1" d="M392.84,167.2c-4.87-8.46-11.21-15.57-19.02-21.33-7.82-5.77-16.52-10.25-26.13-13.45-9.61-3.2-19.02-5.19-28.25-5.96v-.77c8.97-1.02,17.55-3.2,25.75-6.53,8.2-3.33,15.43-7.69,21.71-13.07,6.27-5.38,11.27-11.66,14.99-18.83,3.71-7.17,5.57-14.99,5.57-23.44,0-6.15-1.29-13-3.84-20.56-2.56-7.56-7.3-14.6-14.22-21.14-6.92-6.53-16.4-12.04-28.44-16.53C328.91,1.11,313.23,.02,294.53,.02c-3.59,0-7.33,0-11.16-.01-3.85-.01-21.31,.03-21.31,.03h-.73s-13.39-.01-13.39-.01h-77.69V5.4h42.66V209.47h-.77L82.25,.02H0V5.4H42.66V268.27H0v5.38H91.09v-5.38H48.42V21.15h.77l161.8,252.5h83.42c17.68,0,33.22-.44,46.55-4.42,13.32-3.97,24.34-9.42,33.05-16.33,8.71-6.92,15.24-15.18,19.6-24.79,4.35-9.61,6.53-20.18,6.53-31.71s-2.44-20.75-7.3-29.21Zm-40.74,64.18c-2.56,9.48-6.6,17.1-12.11,22.87-5.51,5.76-12.56,9.8-21.14,12.11-8.59,2.31-18.86,1.92-30.9,1.92h-69.28V5.4h43.1s7.04-.03,11.79-.01c4.75,.01,8.05,.01,12.66,.01,6.66,0,14.75,.44,21.54,1.72,6.79,1.29,12.93,3.98,18.45,8.07,5.5,4.1,10.31,9.24,13.77,17.31,3.46,8.07,5.19,18.77,5.19,32.09,0,11.79-1.16,21.52-3.46,29.21-2.31,7.69-5.57,13.77-9.8,18.25-4.23,4.49-9.29,7.63-15.18,9.42-5.9,1.79-12.43,2.69-19.6,2.69h-35.36v5.38h42.28c17.16,0,30.1,5.9,38.82,17.68,8.71,11.79,13.07,27.93,13.07,48.42,0,14.35-1.29,26.27-3.84,35.74Z"></path></g></svg>