<?xml version="1.0" encoding="UTF-8"?>
<svg xmlns="http://www.w3.org/2000/svg" version="1.1" viewBox="0 0 2000 2000">
  <defs>
    <style>
      .cls-1 {
        fill: #7d8386;
      }

      .cls-2 {
        fill: #010811;
      }

      .cls-3 {
        fill: #b61f34;
      }
    </style>
  </defs>
  <!-- Generator: Adobe Illustrator 28.7.1, SVG Export Plug-In . SVG Version: 1.2.0 Build 142)  -->
  <g>
    <g id="Ebene_1">
      <g>
        <path class="cls-3" d="M424.2,971.3c36-3.3,53.6-20,53.6-45.5s-21.5-46-64.7-46h-136.4v148.5h42.2v-56.7h51.8l47.4,56.7h58.8l-52.5-57h0ZM412.8,911.9c12.4,0,20.4,4.4,20.4,12.8s-8,13.8-20.4,13.8h-94v-26.6h94ZM757,953.9c0-50.1-51-79-112.3-79s-112.3,28.8-112.3,79,51,79.2,112.3,79.2,112.3-28.8,112.3-79.2h0ZM712.7,953.9c0,29.1-24.3,47.3-68.1,47.3s-68.1-18.3-68.1-47.3,24.3-47.3,68.1-47.3,68.1,18.3,68.1,47.3h0ZM1022.6,879.8h-42.2v53.9h-113.1v-53.9h-42.2v148.5h42.2v-62.2h113.1v62.2h42.2v-148.5h0ZM1243.3,971.3c36-3.3,53.6-20,53.6-45.5s-21.5-46-64.7-46h-136.4v148.5h42.2v-56.7h51.8l47.4,56.7h58.8l-52.5-57h0ZM1231.9,911.9c12.4,0,20.4,4.4,20.4,12.8s-8,13.8-20.4,13.8h-94v-26.6h94ZM1545.6,879.8h-184v148.5h187.7v-33.9h-145.2v-26.8h124.2v-31h-124.2v-26.2h141.5v-30.6h0ZM1753.4,971.3c36-3.3,53.6-20,53.6-45.5s-21.5-46-64.7-46h-136.4v148.5h42.2v-56.7h51.8l47.4,56.7h58.8l-52.5-57h0ZM1742,911.9c12.4,0,20.4,4.4,20.4,12.8s-8,13.8-20.4,13.8h-94v-26.6h94Z"/>
        <polygon class="cls-1" points="477.5 1125 193 1125 193 950 220.3 950 220.3 1097.8 477.5 1097.8 477.5 1125"/>
        <path class="cls-2" d="M515.5,1123.9h7.6v-42.5h-7.6v42.5h0ZM547.9,1123.9h7.2v-35.3h.1l12.9,35.3h5.3l12.9-35.3h.1v35.3h7.2v-42.5h-11.4l-11.4,29.8-11.3-29.8h-11.5v42.5h0ZM618.8,1123.9h7.2v-35.3h.1l12.9,35.3h5.3l12.9-35.3h.1v35.3h7.2v-42.5h-11.4l-11.4,29.8-11.3-29.8h-11.5v42.5h0ZM688.9,1111.9c1.1,2.7,2.7,5.1,4.6,7s4.4,3.4,7.1,4.5,5.7,1.6,9,1.6,6.4-.6,9.1-1.7c2.8-1.1,5.1-2.6,7.1-4.6,2-2,3.5-4.3,4.7-7,1.1-2.7,1.7-5.7,1.7-9s-.5-6.5-1.7-9.2c-1.1-2.8-2.7-5.1-4.7-7.1s-4.4-3.4-7.1-4.5c-2.8-1-5.8-1.5-9.1-1.5-3.3,0-6.3.5-9,1.6-2.7,1-5.1,2.6-7.1,4.5s-3.5,4.3-4.6,7.1c-1.1,2.8-1.7,5.9-1.7,9.3s.5,6.3,1.7,9h0ZM696.2,1096.5c.7-1.9,1.7-3.4,2.9-4.9,1.3-1.4,2.8-2.5,4.6-3.2,1.8-.8,3.8-1.1,6-1.1s4.2.4,6,1.1,3.3,1.9,4.6,3.2c1.3,1.4,2.3,3,2.9,4.9.7,1.9,1,3.8,1,5.9s-.3,4.4-1,6.3c-.7,1.9-1.7,3.6-2.9,5-1.3,1.4-2.8,2.5-4.6,3.3s-3.8,1.2-6,1.2-4.2-.4-6-1.2-3.3-1.9-4.6-3.3c-1.3-1.4-2.3-3.1-2.9-5-.7-1.9-1-4-1-6.3s.3-4.1,1-5.9h0ZM754.8,1123.9h15.3c2,0,4-.2,5.9-.6s3.7-1.1,5.2-2c1.5-.9,2.7-2.2,3.7-3.7s1.4-3.5,1.4-5.8-.2-2.6-.7-3.8c-.4-1.2-1.1-2.2-1.9-3.1-.8-.9-1.7-1.6-2.9-2.2s-2.3-.9-3.7-1.1h0c2.2-.8,4-1.9,5.3-3.5,1.4-1.6,2-3.5,2-5.9s-.4-3.5-1.1-4.9-1.7-2.5-3-3.3c-1.2-.9-2.6-1.5-4.1-1.9-1.6-.4-3.2-.5-4.7-.5h-16.6v42.5h.1ZM762.3,1088h6.2c2.9,0,5,.4,6.3,1.4,1.3.9,2,2.3,2,4.1s-.7,2.9-1.9,3.9c-1.3,1-3.2,1.5-5.7,1.5h-6.9v-10.8h0ZM762.3,1105.2h7.2c3.1,0,5.3.4,6.8,1.3s2.2,2.5,2.2,4.7-.3,2.5-.9,3.3-1.4,1.5-2.3,1.9c-.9.4-1.9.7-3.1.8-1.1.1-2.1.2-3.1.2h-7v-12.2h.1ZM808.8,1123.9h7.6v-42.5h-7.6v42.5h0ZM841,1123.9h25.6v-6.8h-18v-35.6h-7.6v42.5h0ZM887.3,1123.9h7.6v-42.5h-7.6v42.5h0ZM919.5,1123.9h29.2v-6.8h-21.6v-11.5h19.5v-6.8h-19.5v-10.4h20.5v-6.8h-28.1v42.5h0ZM971.5,1123.9h7.6v-32.5h.1l21,32.5h9.6v-42.5h-7.6v31.6h-.1l-20.5-31.6h-10v42.5h0ZM1034.7,1123.9h7.2v-35.3h.1l12.9,35.3h5.3l12.9-35.3h.1v35.3h7.2v-42.5h-11.4l-11.4,29.8-11.3-29.8h-11.5v42.5h0ZM1100.6,1123.9h8.4l3.8-9.7h18.4l4,9.7h8.6l-18.3-42.5h-6.5l-18.5,42.5h0ZM1115.5,1107.8l6.6-17.3,6.5,17.3h-13.2ZM1164,1123.9h7.6v-20.9h.4l18.4,20.9h10.6l-21.1-22.8,19.8-19.6h-10.2l-17.6,18h-.4v-18h-7.6v42.5h0ZM1220.4,1123.9h25.6v-6.8h-18v-35.6h-7.6v42.5h0ZM1266.9,1123.9h29.2v-6.8h-21.6v-11.5h19.5v-6.8h-19.5v-10.4h20.5v-6.8h-28.1v42.5h0ZM1318.9,1123.9h7.6v-18h5.5l9.8,18h9.1l-11.3-18.7c3.2-.4,5.6-1.7,7.3-3.8,1.7-2.1,2.6-4.6,2.6-7.7s-.4-4.4-1.3-5.9-2.1-2.8-3.5-3.7-3.2-1.6-5.1-2c-1.9-.4-3.9-.5-5.9-.5h-14.8v42.5h0ZM1326.4,1099.5v-11.5h6.5c1,0,2,0,2.9.2,1,.1,2,.4,2.8.8s1.5.9,2,1.7.8,1.7.8,3-.3,2.5-.8,3.3c-.5.8-1.3,1.4-2.2,1.7s-1.9.6-2.9.7c-1.1.1-2.2.2-3.2.2,0,0-5.9,0-5.9,0ZM1431.4,1084.8c-1.7-1.6-3.5-2.7-5.7-3.4-2.1-.7-4.3-1-6.5-1s-3.9.3-5.8.8-3.5,1.3-5,2.3-2.6,2.4-3.5,4c-.9,1.6-1.4,3.5-1.4,5.7s.5,4.5,1.5,6c1,1.5,2.2,2.7,3.7,3.6,1.5.9,3.1,1.6,4.9,2.1,1.7.5,3.4,1.1,4.9,1.6,1.5.6,2.7,1.3,3.7,2.1,1,.8,1.5,2,1.5,3.6s-.2,1.8-.7,2.6-1,1.4-1.7,1.9-1.5.8-2.4,1.1c-.9.2-1.7.4-2.6.4-1.7,0-3.3-.4-4.8-1.1s-2.7-1.9-3.7-3.3l-5.7,5.5c1.7,2.1,3.9,3.5,6.3,4.4,2.5.9,5,1.3,7.6,1.3s4-.3,5.9-.8c1.9-.5,3.5-1.4,5-2.5,1.4-1.1,2.6-2.5,3.4-4.3.8-1.7,1.3-3.7,1.3-5.9s-.5-4.5-1.5-6-2.2-2.7-3.7-3.7c-1.5-.9-3.1-1.6-4.9-2.2-1.7-.5-3.4-1-4.9-1.6-1.5-.5-2.7-1.2-3.7-2s-1.5-1.9-1.5-3.3.2-1.8.6-2.5c.4-.7.9-1.3,1.6-1.7s1.4-.8,2.2-1c.8-.2,1.7-.3,2.6-.3,1.5,0,2.9.3,4.2.8,1.4.5,2.4,1.4,3.2,2.6l5.5-5.8h.1ZM1454.9,1123.9h29.2v-6.8h-21.6v-11.5h19.5v-6.8h-19.5v-10.4h20.5v-6.8h-28.1v42.5h0ZM1506.6,1123.9h7.6v-42.5h-7.6v42.5h0ZM1547.5,1123.9h7.6v-35.6h13v-6.8h-33.6v6.8h13v35.6h0ZM1633,1123.9h7.2v-42.5h-6.5l-12.8,10.7,4.2,5,8-7.4v34.2h0ZM1685.8,1123.9l10.8-17.1c1.1-1.9,2.1-3.7,2.8-5.6s1.1-3.9,1.1-6.1-.4-4.3-1.1-6c-.8-1.8-1.8-3.3-3.1-4.6-1.4-1.3-2.9-2.2-4.8-2.8s-3.9-1-6.1-1-4.1.3-6,1c-1.9.7-3.4,1.6-4.8,2.9s-2.4,2.8-3.2,4.6c-.8,1.8-1.1,3.8-1.1,6s.3,3.6.9,5.2c.6,1.6,1.5,3.1,2.6,4.3,1.1,1.3,2.5,2.2,4,2.9,1.6.7,3.3,1.1,5.2,1.1s1.5,0,2.2-.2,1.3-.3,1.7-.5h.1c0,.1-10.2,15.8-10.2,15.8h8.9ZM1692.4,1098.4c-.4.9-.9,1.7-1.6,2.5-.7.7-1.5,1.3-2.5,1.6s-2,.6-3.1.6-2.1-.2-3-.6c-.9-.4-1.7-.9-2.5-1.6s-1.3-1.5-1.6-2.5c-.4-.9-.6-2-.6-3.1s.2-2.1.6-3.1c.4-.9,1-1.7,1.6-2.5.7-.7,1.5-1.3,2.5-1.6s2-.6,3-.6,2.1.2,3.1.6c.9.4,1.7.9,2.5,1.6s1.3,1.5,1.6,2.5c.4.9.6,2,.6,3.1s-.2,2.1-.6,3.1h0ZM1734.6,1123.9h7.2v-42.5h-6.5l-12.8,10.7,4.2,5,8-7.4v34.2h0ZM1787.4,1123.9l10.8-17.1c1.1-1.9,2.1-3.7,2.8-5.6.8-1.8,1.1-3.9,1.1-6.1s-.4-4.3-1.1-6c-.8-1.8-1.8-3.3-3.1-4.6-1.4-1.3-2.9-2.2-4.8-2.8s-3.9-1-6.1-1-4.1.3-6,1c-1.9.7-3.4,1.6-4.8,2.9s-2.4,2.8-3.2,4.6c-.8,1.8-1.1,3.8-1.1,6s.3,3.6.9,5.2c.6,1.6,1.5,3.1,2.6,4.3,1.1,1.3,2.5,2.2,4,2.9,1.6.7,3.3,1.1,5.2,1.1s1.5,0,2.2-.2c.8-.1,1.3-.3,1.7-.5h.1c0,.1-10.2,15.8-10.2,15.8h8.8ZM1794.1,1098.4c-.4.9-.9,1.7-1.6,2.5-.7.7-1.5,1.3-2.5,1.6s-2,.6-3.1.6-2.1-.2-3.1-.6c-.9-.4-1.7-.9-2.5-1.6s-1.3-1.5-1.6-2.5c-.4-.9-.6-2-.6-3.1s.2-2.1.6-3.1c.4-.9.9-1.7,1.6-2.5.7-.7,1.5-1.3,2.5-1.6s2-.6,3.1-.6,2.1.2,3.1.6c.9.4,1.7.9,2.5,1.6s1.3,1.5,1.6,2.5c.4.9.6,2,.6,3.1s-.2,2.1-.6,3.1h0Z"/>
      </g>
    </g>
  </g>
</svg>