<?xml version="1.0" encoding="UTF-8"?>
<svg id="Ebene_2" data-name="Ebene 2" xmlns="http://www.w3.org/2000/svg" viewBox="0 0 505.61 116.77">
  <defs>
    <style>
      .cls-1 {
        stroke-width: 1.21px;
      }

      .cls-1, .cls-2 {
        fill: none;
        stroke: #3d5067;
      }

      .cls-2 {
        stroke-linecap: round;
        stroke-width: 1.3px;
      }

      .cls-3 {
        fill: #3d5067;
      }
    </style>
  </defs>
  <g id="Ebene_1-2" data-name="Ebene 1">
    <g>
      <path class="cls-3" d="M472.58,14.14h-7.81c-1.6,0-2.92.61-3.76,1.75l-19.11,29.03-18.38-29.03c-.84-1.14-2.16-1.75-3.77-1.75h-7.76c-1.6,0-2.01.61-1.17,1.75l24.76,38.62-15.78,23.97c-.84,1.14-.43,1.75,1.17,1.75h7.81c1.6,0,2.92-.61,3.76-1.75l41.2-62.59c.84-1.14.43-1.75-1.17-1.75h0Z"/>
      <path class="cls-3" d="M82.3,81.03h19.36c1.22,0,1.88-.66,1.88-1.88v-5.64c0-1.22-.66-1.88-1.88-1.88h-18.6c-8.27,0-12.21-2.54-12.21-10.05V16.67c0-1.22-.66-1.88-1.88-1.88h-6.95c-1.22,0-1.88.66-1.88,1.88v45.1c0,12.03,5.73,19.26,22.17,19.26h0ZM132.28,80.56h21.23c1.22,0,1.88-.66,1.88-1.88v-5.64c0-1.22-.66-1.88-1.88-1.88h-20.48c-8.27,0-12.21-2.54-12.21-10.05v-9.02h30.82c1.22,0,1.88-.66,1.88-1.88v-5.64c0-1.22-.66-1.88-1.88-1.88h-30.82v-8.46c0-7.42,3.95-10.05,12.21-10.05h20.48c1.22,0,1.88-.66,1.88-1.88v-5.64c0-1.22-.66-1.88-1.88-1.88h-21.23c-16.44,0-22.17,7.23-22.17,19.26v27.25c0,12.03,5.73,19.26,22.17,19.26h0ZM186.21,81.03h9.3c13.72,0,20.29-6.76,20.29-18.32,0-1.22-.66-1.88-1.88-1.88h-6.86c-1.13,0-1.97.66-1.97,1.88,0,6.39-4.51,8.64-10.33,8.64h-7.8c-7.33,0-11.28-2.54-11.28-9.77v-27.81c0-7.14,3.95-9.77,11.28-9.77h7.8c5.82,0,10.33,2.44,10.33,8.83,0,1.22.85,1.88,1.97,1.88h6.86c1.22,0,1.88-.66,1.88-1.88,0-11.65-6.58-18.51-20.29-18.51h-9.3c-15.5,0-21.23,7.23-21.23,19.26v28.19c0,12.03,5.73,19.26,21.23,19.26h0ZM244.28,80.56h6.95c1.22,0,1.88-.66,1.88-1.88V24.19h17.95c1.22,0,1.88-.66,1.88-1.88v-5.64c0-1.22-.66-1.88-1.88-1.88h-46.6c-1.22,0-1.88.66-1.88,1.88v5.64c0,1.22.66,1.88,1.88,1.88h17.95v54.5c0,1.22.66,1.88,1.88,1.88h0ZM284.59,81.03h6.95c1.22,0,1.88-.66,1.88-1.88v-44.91c0-7.52,3.95-10.05,12.21-10.05h10.15c1.22,0,1.88-.66,1.88-1.88v-5.64c0-1.22-.66-1.88-1.88-1.88h-10.9c-16.44,0-22.17,7.23-22.17,19.26v45.1c0,1.22.66,1.88,1.88,1.88h0ZM330.25,80.56h6.95c1.22,0,1.88-.66,1.88-1.88V16.67c0-1.22-.66-1.88-1.88-1.88h-6.95c-1.22,0-1.88.66-1.88,1.88v62.01c0,1.22.66,1.88,1.88,1.88h0ZM357.68,80.56h6.95c1.22,0,1.88-.66,1.88-1.88v-24.71h29.88c1.22,0,1.88-.66,1.88-1.88v-5.64c0-1.22-.66-1.88-1.88-1.88h-29.88v-10.34c0-7.42,3.95-10.05,12.22-10.05h19.54c1.22,0,1.88-.66,1.88-1.88v-5.64c0-1.22-.66-1.88-1.88-1.88h-20.3c-16.44,0-22.17,7.23-22.17,19.26v44.63c0,1.22.66,1.88,1.88,1.88h0Z"/>
      <polygon class="cls-1" points="491.69 8.11 491.69 13.56 500.08 13.56 500.08 8.11 495.89 4.31 491.69 8.11 491.69 8.11"/>
      <path class="cls-2" d="M495.89,18.81c5.01,0,9.08-4.08,9.08-9.08s-4.06-9.08-9.08-9.08-9.08,4.06-9.08,9.08,4.07,9.08,9.08,9.08h0Z"/>
      <path class="cls-3" d="M.07,116.46h1.68l1.57-4.85h7l1.57,4.85h1.68l-5.23-15.72h-1.53l3.05,9.5H3.77l3.05-9.5h-1.53L.07,116.46H.07ZM19.85,116.46h10.33v-1.37h-8.76v-14.35h-1.57v15.72h0ZM36.39,116.46h10.33v-1.37h-8.76v-14.35h-1.57v15.72h0ZM72.65,102.38v-1.48h-9.81v15.56h9.81v-1.48h-8.08v-5.81h7.75v-1.48h-7.75v-5.3h8.08ZM79.7,116.46h10.33v-1.37h-8.76v-14.35h-1.57v15.72h0ZM96.24,116.46h11v-1.37h-9.41v-5.95h8.71v-1.35h-8.71v-5.68h9.29v-1.37h-10.89v15.72h0ZM120.67,116.77c4.29,0,6.24-2.74,6.69-6.4h-1.59c-.38,2.92-1.84,5.05-5.1,5.05-3.88,0-5.81-3.05-5.81-6.82s1.93-6.82,5.81-6.82c2.81,0,4.27,1.59,4.87,3.88h1.62c-.72-3.08-2.67-5.23-6.49-5.23-4.94,0-7.41,3.66-7.41,8.17s2.47,8.17,7.41,8.17h0ZM137.75,116.46h1.59v-14.35h5.43v-1.37h-12.44v1.37h5.41v14.35h0ZM150.95,116.46h1.57v-6.33h4.89l4.02,6.33h1.86l-4.09-6.44c2.13-.43,3.73-2.31,3.73-4.58,0-2.58-2.11-4.69-4.69-4.69h-7.3v15.72h0ZM152.52,108.76v-6.65h5.72c1.73,0,3.12,1.48,3.12,3.32s-1.39,3.32-3.12,3.32h-5.72ZM170.39,116.46h1.57v-15.72h-1.57v15.72h0ZM186.46,116.77c4.29,0,6.24-2.74,6.69-6.4h-1.59c-.38,2.92-1.84,5.05-5.1,5.05-3.88,0-5.82-3.05-5.82-6.82s1.93-6.82,5.82-6.82c2.81,0,4.26,1.59,4.87,3.88h1.62c-.72-3.08-2.67-5.23-6.49-5.23-4.94,0-7.41,3.66-7.41,8.17s2.47,8.17,7.41,8.17h0ZM210.98,116.46h7.97c2.4,0,4.33-1.93,4.33-4.33,0-1.95-1.17-3.26-2.78-3.75,1.3-.54,2.2-1.71,2.2-3.43,0-2.31-1.89-4.2-4.2-4.2h-7.52v15.72h0ZM212.55,115.09v-5.95h6.17c1.64,0,2.99,1.35,2.99,2.99s-1.35,2.96-2.99,2.96h-6.17ZM212.55,107.79v-5.68h5.72c1.57,0,2.85,1.26,2.85,2.83s-1.28,2.85-2.85,2.85h-5.72ZM236.44,116.77c3.37,0,6.11-2.74,6.11-6.13v-9.9h-1.57v9.79c0,2.63-2.02,4.87-4.53,4.87s-4.53-2.24-4.53-4.87v-9.79h-1.57v9.9c0,3.39,2.74,6.13,6.11,6.13h0ZM250.31,116.46h1.57v-15.72h-1.57v15.72h0ZM259.78,116.46h10.33v-1.37h-8.76v-14.35h-1.57v15.72h0ZM276.33,116.46h5.46c4.94,0,7.21-3.35,7.21-7.86s-2.27-7.86-7.21-7.86h-5.46v15.72h0ZM277.9,115.09v-12.98h3.88c3.88,0,5.63,2.72,5.63,6.49s-1.75,6.49-5.63,6.49h-3.88ZM296.08,116.46h1.57v-15.72h-1.57v15.72h0ZM314.76,116.46h1.62l-7.63-15.72h-1.62l7.63,15.72h0ZM305.56,116.46h1.57v-15.72h-1.57v15.72h0ZM316.38,116.46h1.57v-15.72h-1.57v15.72h0ZM332.45,116.77c1.82,0,3.19-.49,4.22-1.39.85-.74,1.03-1.48,1.1-1.75l.16.02-.22.99v1.82h1.57v-8.04h-6.71v1.37h5.3c0,3.03-1.5,5.63-5.41,5.63s-5.84-3.05-5.84-6.82,1.95-6.82,5.84-6.82c3.21,0,5.25,2,5.25,4.06h1.57c0-2.63-2.29-5.41-6.82-5.41-4.94,0-7.41,3.66-7.41,8.17s2.47,8.17,7.41,8.17h0Z"/>
      <path class="cls-3" d="M38.35,46.17v-.19c5.83-2.09,7.55-6.27,7.55-10.38v-5.64c0-7.92-5.25-15.77-18.72-15.77h-6.78C9.45,14.2,2.52,18.2.66,26.76c0,.02-.03.27-.03.38,0,1.12.91,2.05,2.04,2.05h6.03c.82,0,1.5-.47,1.85-1.17.04-.08.27-.62.35-.78,1.59-3.12,5.18-4.14,10.44-4.14h4.2c6.5,0,10.51,1.91,10.51,6.41v5.92c0,4.91-1.51,7.2-10.06,7.25h-6.84c-1.34,0-2.01.67-2.01,1.91v5.06c0,1.25.67,1.92,2.01,1.92h6.59c9.65,0,12.23,2.39,12.23,6.69v6.88c0,5.27-3.53,7.08-8.6,7.08h-8.98c-4.95,0-8.42-.89-10.14-3.61h-.02c-.33-.73-1.06-1.27-1.92-1.27H2.1c-1.16,0-2.1.94-2.1,2.11,0,.25.06.5.15.72,0,.02-.02.02-.02.02,2.36,7.44,9.09,10.91,19.31,10.91h9.65c12.9,0,18.72-5.92,18.72-15.77v-7.06c0-4.58-2.2-8.83-9.46-12.08h0Z"/>
    </g>
  </g>
</svg>